# xmcd
# 
# Track frame offsets:
#     150
#     67682
#     109443
# 
# Disc length: 2928
# 
# Revision: 1
# Processed by: cddbd v1.5.2PL0 Copyright (c) Steve Scherf et al.
# Submitted via: BonkEnc v1.0.8
# 
DISCID=200b6e03
DTITLE=Jim Knodle and Anansi - Wending
DYEAR=1999
DGENRE=Contemporary Jazz
TTITLE0=Wending
TTITLE1=No Before Like More
TTITLE2=M.D.D. - Four 4
EXTD=YEAR: 1999
EXTT0=
EXTT1=
EXTT2=
PLAYORDER=
